<svg width="1200" height="630" viewBox="0 0 1200 630" fill="none" xmlns="http://www.w3.org/2000/svg">
  <rect width="1200" height="630" fill="#08080D"/>
  <rect x="58" y="54" width="1084" height="522" rx="28" fill="#10111A" stroke="#25273A"/>
  <path d="M168 166L214 92L260 166H168Z" fill="#7477FF"/>
  <path d="M190 166L214 128L238 166H190Z" fill="#08080D"/>
  <text x="306" y="144" fill="#F7F7FB" font-family="Inter, ui-sans-serif, system-ui, -apple-system, BlinkMacSystemFont, 'Segoe UI', sans-serif" font-size="56" font-weight="700">Stallion</text>
  <text x="306" y="194" fill="#A7ABBE" font-family="Inter, ui-sans-serif, system-ui, -apple-system, BlinkMacSystemFont, 'Segoe UI', sans-serif" font-size="24" font-weight="500">Plan agents. Run the graph. Inspect the work.</text>
  <rect x="168" y="286" width="864" height="148" rx="18" fill="#151724" stroke="#2B2E44"/>
  <circle cx="231" cy="360" r="18" fill="#7477FF"/>
  <circle cx="397" cy="360" r="18" fill="#22C55E"/>
  <circle cx="563" cy="360" r="18" fill="#38BDF8"/>
  <circle cx="729" cy="360" r="18" fill="#F59E0B"/>
  <circle cx="895" cy="360" r="18" fill="#A855F7"/>
  <path d="M249 360H379" stroke="#3A3D55" stroke-width="4" stroke-linecap="round"/>
  <path d="M415 360H545" stroke="#3A3D55" stroke-width="4" stroke-linecap="round"/>
  <path d="M581 360H711" stroke="#3A3D55" stroke-width="4" stroke-linecap="round"/>
  <path d="M747 360H877" stroke="#3A3D55" stroke-width="4" stroke-linecap="round"/>
  <text x="192" y="485" fill="#F7F7FB" font-family="Inter, ui-sans-serif, system-ui, -apple-system, BlinkMacSystemFont, 'Segoe UI', sans-serif" font-size="22" font-weight="600">Explore</text>
  <text x="366" y="485" fill="#F7F7FB" font-family="Inter, ui-sans-serif, system-ui, -apple-system, BlinkMacSystemFont, 'Segoe UI', sans-serif" font-size="22" font-weight="600">Plan</text>
  <text x="522" y="485" fill="#F7F7FB" font-family="Inter, ui-sans-serif, system-ui, -apple-system, BlinkMacSystemFont, 'Segoe UI', sans-serif" font-size="22" font-weight="600">Agents</text>
  <text x="688" y="485" fill="#F7F7FB" font-family="Inter, ui-sans-serif, system-ui, -apple-system, BlinkMacSystemFont, 'Segoe UI', sans-serif" font-size="22" font-weight="600">Runtime</text>
  <text x="842" y="485" fill="#F7F7FB" font-family="Inter, ui-sans-serif, system-ui, -apple-system, BlinkMacSystemFont, 'Segoe UI', sans-serif" font-size="22" font-weight="600">Audit</text>
  <text x="168" y="540" fill="#7477FF" font-family="Inter, ui-sans-serif, system-ui, -apple-system, BlinkMacSystemFont, 'Segoe UI', sans-serif" font-size="18" font-weight="600">inferensys.com</text>
</svg>
