<svg width="1500" height="500" viewBox="0 0 1500 500" fill="none" xmlns="http://www.w3.org/2000/svg">
<g clip-path="url(#clip0_213_137)">
<rect width="1500" height="500" fill="white"/>
<rect x="994" y="124.32" width="70.2847" height="24.7007" transform="rotate(-90 994 124.32)" fill="#FA9819"/>
<rect x="1023.67" y="124.32" width="70.2847" height="21.1893" transform="rotate(-90 1023.67 124.32)" fill="#F45F00"/>
<rect x="1049.62" y="124.32" width="70.2847" height="13.773" transform="rotate(-90 1049.62 124.32)" fill="#48749E"/>
<path d="M1088.14 118V61.6741H1096.65V118H1088.14ZM1101.71 118V68.5584H1108.35L1110.14 78.1129V118H1101.71ZM1132.71 118V89.7536C1132.71 84.0237 1131.85 79.9626 1130.12 77.5705C1128.43 75.1784 1125.84 73.9824 1122.36 73.9824C1118.89 73.9824 1115.94 75.2619 1113.52 77.8209C1111.1 80.3799 1109.89 83.6064 1109.89 87.5006L1105.8 84.9138C1105.8 80.8527 1107.62 77.0281 1111.27 73.44C1114.94 69.8518 1119.65 68.0577 1125.41 68.0577C1131.14 68.0577 1135.19 69.9909 1137.55 73.8572C1139.94 77.6957 1141.14 82.9806 1141.14 89.7119V118H1132.71ZM1149.11 118V74.4413H1139.05V68.5584H1149.11V65.4292C1149.11 60.5059 1151.07 57.0707 1154.99 55.1236C1158.94 53.1487 1164.21 52.1613 1170.8 52.1613H1172.22V57.8356H1170.97C1166.74 57.8356 1163.45 58.3363 1161.08 59.3376C1158.72 60.339 1157.54 62.3834 1157.54 65.4709V68.5584H1171.68V74.4413H1157.54V118H1149.11ZM1191.55 118.417C1183.88 118.417 1178.35 116.192 1174.99 111.742C1171.6 107.263 1169.9 101.074 1169.9 93.1749C1169.9 84.8025 1171.64 78.5302 1175.11 74.3579C1178.56 70.1578 1184 68.0577 1191.43 68.0577C1199.08 68.0577 1204.56 70.1578 1207.87 74.3579C1211.15 78.558 1212.79 84.7886 1212.79 93.0497C1212.79 94.0232 1212.73 94.9272 1212.62 95.7617H1177.16V90.5046H1204.28C1204.06 84.4409 1202.96 80.1573 1200.98 77.654C1198.7 74.9837 1195.52 73.6486 1191.43 73.6486C1187.45 73.6486 1184.24 75.0532 1181.79 77.8626C1179.31 80.6997 1178.08 85.8038 1178.08 93.1749C1178.08 100.157 1179.27 105.163 1181.66 108.195C1184.03 111.283 1187.32 112.826 1191.55 112.826V118.417ZM1191.55 112.826C1193.97 112.826 1196.09 112.423 1197.89 111.616C1199.7 110.81 1201.11 109.433 1202.11 107.486C1203.05 105.539 1203.76 103.341 1204.24 100.894L1211.83 102.938C1211.36 106.332 1210.27 109.21 1208.58 111.575C1206.85 113.967 1204.63 115.705 1201.9 116.79C1199.17 117.875 1195.72 118.417 1191.55 118.417V112.826ZM1244.13 91.5894C1244.13 84.8025 1243.31 80.1852 1241.67 77.7374C1240.06 75.2619 1237.68 74.0241 1234.54 74.0241C1230.95 74.0241 1228.13 75.234 1226.07 77.654C1224.01 80.0461 1222.98 82.7581 1222.98 85.7899L1219.73 83.4117C1219.73 79.1838 1221.34 75.5817 1224.57 72.6055C1227.79 69.6293 1232.13 68.1412 1237.58 68.1412C1243.2 68.1412 1247.1 70.0187 1249.27 73.7737C1251.46 77.501 1252.56 83.4395 1252.56 91.5894H1244.13ZM1214.59 118V68.5584H1221.23L1223.02 78.1129V118H1214.59ZM1273.95 118.417C1266.27 118.417 1260.75 116.192 1257.39 111.742C1253.99 107.263 1252.3 101.074 1252.3 93.1749C1252.3 84.8025 1254.04 78.5302 1257.51 74.3579C1260.96 70.1578 1266.4 68.0577 1273.83 68.0577C1281.48 68.0577 1286.96 70.1578 1290.27 74.3579C1293.55 78.558 1295.19 84.7886 1295.19 93.0497C1295.19 94.0232 1295.13 94.9272 1295.02 95.7617H1259.56V90.5046H1286.68C1286.45 84.4409 1285.36 80.1573 1283.38 77.654C1281.1 74.9837 1277.92 73.6486 1273.83 73.6486C1269.85 73.6486 1266.64 75.0532 1264.19 77.8626C1261.71 80.6997 1260.48 85.8038 1260.48 93.1749C1260.48 100.157 1261.67 105.163 1264.06 108.195C1266.43 111.283 1269.72 112.826 1273.95 112.826V118.417ZM1273.95 112.826C1276.37 112.826 1278.49 112.423 1280.29 111.616C1282.1 110.81 1283.51 109.433 1284.51 107.486C1285.45 105.539 1286.16 103.341 1286.64 100.894L1294.23 102.938C1293.76 106.332 1292.67 109.21 1290.97 111.575C1289.25 113.967 1287.03 115.705 1284.3 116.79C1281.57 117.875 1278.12 118.417 1273.95 118.417V112.826ZM1296.99 118V68.5584H1303.63L1305.42 78.1129V118H1296.99ZM1327.99 118V89.7536C1327.99 84.0237 1327.13 79.9626 1325.41 77.5705C1323.71 75.1784 1321.12 73.9824 1317.65 73.9824C1314.17 73.9824 1311.22 75.2619 1308.8 77.8209C1306.38 80.3799 1305.17 83.6064 1305.17 87.5006L1301.08 84.9138C1301.08 80.8527 1302.9 77.0281 1306.55 73.44C1310.22 69.8518 1314.93 68.0577 1320.69 68.0577C1326.42 68.0577 1330.47 69.9909 1332.83 73.8572C1335.23 77.6957 1336.42 82.9806 1336.42 89.7119V118H1327.99ZM1359.21 118.334C1353.25 118.334 1348.44 117.263 1344.77 115.121C1341.1 112.979 1338.83 109.141 1337.97 103.606L1345.44 101.061C1345.91 105.233 1347.33 108.223 1349.69 110.031C1352.08 111.839 1355.3 112.743 1359.33 112.743C1363.14 112.743 1365.99 112.075 1367.88 110.74C1369.8 109.377 1370.76 107.597 1370.76 105.4C1370.76 102.257 1369.3 100.157 1366.38 99.0995C1363.46 98.0147 1359.79 96.9856 1355.37 96.012C1350.33 94.9272 1346.23 93.3835 1343.06 91.3808C1339.92 89.3503 1338.34 85.9846 1338.34 81.2839C1338.34 77.0003 1340.08 73.7459 1343.56 71.5207C1347.04 69.2677 1351.81 68.1412 1357.87 68.1412C1363.91 68.1412 1368.66 69.2399 1372.14 71.4373C1375.64 73.6069 1377.8 77.2228 1378.61 82.2852L1371.14 84.8303C1370.67 81.1865 1369.29 78.4189 1367.01 76.5275C1364.75 74.636 1361.68 73.6903 1357.79 73.6903C1354.03 73.6903 1351.24 74.3718 1349.4 75.7347C1347.59 77.0977 1346.69 78.9335 1346.69 81.2421C1346.69 84.1349 1348.07 86.1098 1350.82 87.1668C1353.6 88.2238 1357.12 89.239 1361.38 90.2126C1366.41 91.2417 1370.62 92.702 1374.02 94.5935C1377.44 96.4571 1379.15 99.8645 1379.15 104.816C1379.15 109.377 1377.45 112.771 1374.06 114.996C1370.67 117.221 1365.71 118.334 1359.21 118.334ZM1392.38 118L1377.94 68.5584H1386.75L1398.76 112.201H1398.85L1410.74 68.5584H1419.58L1405.27 118H1392.38ZM1379.95 137.234V131.435C1384.67 131.435 1388.37 130.545 1391.04 128.765C1393.71 127.012 1395.84 123.424 1397.43 118H1405.27C1403.02 125.733 1399.83 130.865 1395.72 133.396C1391.6 135.955 1386.34 137.234 1379.95 137.234ZM1439.65 118.334C1433.7 118.334 1428.88 117.263 1425.21 115.121C1421.54 112.979 1419.27 109.141 1418.41 103.606L1425.88 101.061C1426.35 105.233 1427.77 108.223 1430.14 110.031C1432.53 111.839 1435.74 112.743 1439.77 112.743C1443.58 112.743 1446.44 112.075 1448.33 110.74C1450.25 109.377 1451.21 107.597 1451.21 105.4C1451.21 102.257 1449.75 100.157 1446.83 99.0995C1443.9 98.0147 1440.23 96.9856 1435.81 96.012C1430.78 94.9272 1426.67 93.3835 1423.5 91.3808C1420.36 89.3503 1418.79 85.9846 1418.79 81.2839C1418.79 77.0003 1420.53 73.7459 1424 71.5207C1427.48 69.2677 1432.25 68.1412 1438.31 68.1412C1444.35 68.1412 1449.11 69.2399 1452.58 71.4373C1456.09 73.6069 1458.24 77.2228 1459.05 82.2852L1451.58 84.8303C1451.11 81.1865 1449.73 78.4189 1447.45 76.5275C1445.2 74.636 1442.12 73.6903 1438.23 73.6903C1434.48 73.6903 1431.68 74.3718 1429.84 75.7347C1428.04 77.0977 1427.13 78.9335 1427.13 81.2421C1427.13 84.1349 1428.51 86.1098 1431.26 87.1668C1434.04 88.2238 1437.56 89.239 1441.82 90.2126C1446.85 91.2417 1451.07 92.702 1454.46 94.5935C1457.88 96.4571 1459.59 99.8645 1459.59 104.816C1459.59 109.377 1457.9 112.771 1454.5 114.996C1451.11 117.221 1446.16 118.334 1439.65 118.334Z" fill="#1E3D59"/>
<path d="M74.9211 362.095C47.4453 362.095 28.5044 356.664 18.0983 345.802C7.78351 334.848 2.6261 317.048 2.6261 292.402H30.6952C30.6952 313.397 34.4377 327.043 41.9228 333.342C49.4079 339.64 60.316 342.789 74.6472 342.789C88.9784 342.789 99.9322 340.188 107.509 334.985C115.085 329.69 118.873 322.525 118.873 313.488C118.873 302.443 114.218 294.73 104.907 290.348C95.6876 285.875 82.6343 281.631 65.7473 277.614C43.2007 272.046 27.0439 265.839 17.2768 258.993C7.60094 252.147 2.76302 241.01 2.76302 225.584C2.76302 211.527 8.10299 199.523 18.7829 189.573C29.4629 179.624 48.0387 174.649 74.5103 174.649C101.53 174.649 120.242 180.263 130.648 191.49C141.146 202.627 146.394 219.833 146.394 243.11H118.325C118.325 222.754 114.492 209.473 106.824 203.266C99.1563 197.058 88.2938 193.955 74.2364 193.955C59.9965 193.955 49.0427 196.648 41.3751 202.033C33.7075 207.328 29.8736 214.174 29.8736 222.572C29.8736 233.252 34.529 240.874 43.8397 245.438C53.2417 250.002 66.2493 254.338 82.8626 258.445C106.048 264.105 122.433 270.129 132.018 276.519C141.693 282.909 146.531 293.954 146.531 309.654C146.531 324.35 141.283 336.765 130.785 346.897C120.379 357.029 101.758 362.095 74.9211 362.095ZM222.626 362.78C210.668 362.78 200.673 360.178 192.64 354.975C184.607 349.681 180.591 339.914 180.591 325.674V218.19H142.663V198.747H180.591V162.052H208.386V198.747H262.06V218.19H208.386V319.239C208.386 329.188 210.44 335.761 214.548 338.956C218.655 342.15 224.452 343.748 231.937 343.748C238.6 343.748 245.081 342.698 251.38 340.599V359.357C242.251 361.639 232.667 362.78 222.626 362.78ZM314.355 362.506C305.957 362.506 298.335 361.776 291.489 360.315C284.734 358.764 278.847 356.162 273.826 352.511C268.897 348.86 265.109 343.885 262.462 337.586C259.906 331.197 258.628 323.164 258.628 313.488C258.628 304.177 259.906 296.464 262.462 290.348C265.018 284.141 268.669 279.257 273.416 275.697C278.253 272.046 284.095 269.445 290.942 267.893C297.788 266.341 305.455 265.565 313.945 265.565H366.933V256.391C366.933 246.807 365.336 239.094 362.141 233.252C358.946 227.318 354.382 222.982 348.449 220.244C342.516 217.505 335.487 216.136 327.363 216.136C320.334 216.136 314.036 217.369 308.468 219.833C302.899 222.298 298.29 226.268 294.638 231.745C291.079 237.131 288.614 244.342 287.245 253.379L260.134 246.122C261.595 237.177 264.287 229.6 268.212 223.393C272.229 217.186 277.158 212.166 283 208.332C288.933 204.498 295.643 201.714 303.128 199.979C310.613 198.154 318.646 197.241 327.226 197.241C341.648 197.241 353.88 199.249 363.921 203.266C373.962 207.282 381.584 213.717 386.787 222.572C392.081 231.426 394.729 243.156 394.729 257.761V361H371.589L369.261 340.462C368.074 342.744 366.021 345.163 363.1 347.719C360.179 350.274 356.436 352.693 351.872 354.975C347.308 357.166 341.877 358.992 335.578 360.452C329.371 361.822 322.297 362.506 314.355 362.506ZM320.38 344.295C328.686 344.295 335.989 343.291 342.287 341.283C348.677 339.184 353.926 336.537 358.033 333.342C362.141 330.147 364.971 326.861 366.523 323.483V281.174H320.38C315.725 281.174 311.343 281.631 307.235 282.544C303.128 283.365 299.522 284.917 296.418 287.199C293.406 289.39 291.033 292.539 289.299 296.647C287.564 300.754 286.697 306.003 286.697 312.393C286.697 318.965 287.519 324.305 289.162 328.413C290.896 332.52 293.315 335.715 296.418 337.997C299.522 340.279 303.128 341.922 307.235 342.926C311.343 343.839 315.725 344.295 320.38 344.295ZM406.038 361V146.032H433.833V361H406.038ZM447.243 361V146.032H475.038V361H447.243ZM489.53 361V198.61H517.325V361H489.53ZM489.53 154.247H517.325V178.756H489.53V154.247ZM596.916 362.095C572.726 362.095 554.789 355.386 543.105 341.968C531.421 328.458 525.579 307.6 525.579 279.394C525.579 251.188 531.421 230.422 543.105 217.095C554.789 203.676 572.726 196.967 596.916 196.967C621.197 196.967 639.133 203.676 650.726 217.095C662.41 230.422 668.252 251.188 668.252 279.394C668.252 307.6 662.41 328.458 650.726 341.968C639.133 355.386 621.197 362.095 596.916 362.095ZM596.916 343.063C609.604 343.063 620.056 338.636 628.271 329.782C636.486 320.836 640.594 304.086 640.594 279.531C640.594 254.977 636.486 238.272 628.271 229.418C620.056 220.563 609.604 216.136 596.916 216.136C584.228 216.136 573.776 220.563 565.561 229.418C557.345 238.272 553.238 254.977 553.238 279.531C553.238 304.086 557.345 320.836 565.561 329.782C573.776 338.636 584.228 343.063 596.916 343.063ZM673.068 361V198.747H694.839L700.726 230.102V361H673.068ZM774.801 361V268.304C774.801 249.5 771.972 236.173 766.312 228.322C760.744 220.472 752.255 216.547 740.845 216.547C729.434 216.547 719.759 220.746 711.817 229.144C703.876 237.542 699.905 248.13 699.905 260.91L686.486 252.421C686.486 239.094 692.465 226.542 704.423 214.767C716.472 202.992 731.945 197.104 750.84 197.104C769.644 197.104 782.925 203.448 790.684 216.136C798.534 228.733 802.46 246.077 802.46 268.167V361H774.801Z" fill="black" fill-opacity="0.2"/>
<path d="M4.864 454V408.176H11.872L27.392 446.16H27.52L43.104 408.176H50.144V454H45.024V421.936L45.184 416.176H45.088L29.536 454H25.344L9.92 416.368H9.792L9.984 422.096V454H4.864ZM67.96 454.864C64.1413 454.864 61.1867 453.723 59.096 451.44C57.0267 449.157 55.992 446.011 55.992 442V421.008H61.08V440.976C61.08 443.963 61.752 446.235 63.096 447.792C64.4613 449.349 66.4453 450.128 69.048 450.128C71.8 450.128 74.072 449.125 75.864 447.12C77.6773 445.093 78.584 442.608 78.584 439.664V421.008H83.704V454H78.776V446.704L81.112 449.04H78.648C77.6667 450.789 76.2053 452.197 74.264 453.264C72.344 454.331 70.2427 454.864 67.96 454.864ZM89.0035 454V408.176H94.1235V454H89.0035ZM110.644 454.864C108.212 454.864 106.196 454.117 104.595 452.624C103.017 451.131 102.227 448.88 102.227 445.872V412.144H107.316V445.008C107.316 446.843 107.668 448.165 108.372 448.976C109.076 449.765 110.11 450.16 111.476 450.16C111.902 450.16 112.329 450.128 112.756 450.064C113.204 449.979 113.758 449.84 114.42 449.648C115.102 449.435 115.444 449.328 115.444 449.328V454.032C115.444 454.032 115.134 454.117 114.516 454.288C113.897 454.48 113.278 454.619 112.66 454.704C112.041 454.811 111.369 454.864 110.644 454.864ZM96.5955 425.552V421.008H115.476V425.552H96.5955ZM119.464 454V421.008H124.584V454H119.464ZM121.992 415.28C121.032 415.28 120.2 414.939 119.496 414.256C118.813 413.552 118.472 412.709 118.472 411.728C118.472 410.725 118.813 409.893 119.496 409.232C120.2 408.571 121.032 408.24 121.992 408.24C122.995 408.24 123.827 408.571 124.488 409.232C125.171 409.893 125.512 410.725 125.512 411.728C125.512 412.709 125.171 413.552 124.488 414.256C123.827 414.939 122.995 415.28 121.992 415.28ZM139.347 454L157.139 408.176H162.707L180.403 454H174.739L161.107 417.872L159.955 414.352H159.827L158.643 417.872L144.915 454H139.347ZM146.931 441.264L148.659 436.4H170.227L171.987 441.264H146.931ZM195.797 468.08C193.578 468.08 191.573 467.792 189.781 467.216C187.989 466.64 186.389 465.808 184.981 464.72C183.594 463.632 182.506 462.448 181.717 461.168C180.949 459.888 180.565 459.248 180.565 459.248L185.045 456.752C185.045 456.752 185.376 457.264 186.037 458.288C186.72 459.333 187.52 460.24 188.437 461.008C189.354 461.776 190.421 462.352 191.637 462.736C192.874 463.141 194.272 463.344 195.829 463.344C199.392 463.344 202.122 462.331 204.021 460.304C205.941 458.277 206.901 455.461 206.901 451.856V448.4H206.773C205.706 450.064 204.16 451.451 202.133 452.56C200.128 453.669 197.738 454.224 194.965 454.224C190.57 454.224 186.858 452.624 183.829 449.424C180.821 446.224 179.317 442.128 179.317 437.136C179.317 432.187 180.821 428.123 183.829 424.944C186.837 421.744 190.666 420.144 195.317 420.144C197.77 420.144 200.053 420.688 202.165 421.776C204.298 422.843 205.888 424.229 206.933 425.936H208.341L207.061 427.696V421.008H211.989V451.792C211.989 456.869 210.56 460.848 207.701 463.728C204.864 466.629 200.896 468.08 195.797 468.08ZM195.797 449.552C199.061 449.552 201.77 448.421 203.925 446.16C206.08 443.899 207.157 440.869 207.157 437.072C207.136 433.339 206.048 430.373 203.893 428.176C201.76 425.957 199.061 424.848 195.797 424.848C192.533 424.848 189.824 425.968 187.669 428.208C185.514 430.427 184.437 433.403 184.437 437.136C184.437 440.997 185.504 444.037 187.637 446.256C189.792 448.453 192.512 449.552 195.797 449.552ZM232.147 454.864C227.39 454.864 223.422 453.232 220.243 449.968C217.086 446.704 215.507 442.533 215.507 437.456C215.507 432.464 217.075 428.336 220.211 425.072C223.347 421.787 227.219 420.144 231.827 420.144C236.563 420.144 240.382 421.595 243.283 424.496C246.184 427.376 247.635 430.992 247.635 435.344V438.576H218.419V434.224H242.227C242.12 431.536 241.118 429.307 239.219 427.536C237.342 425.765 234.878 424.88 231.827 424.88C228.627 424.88 225.96 426.043 223.827 428.368C221.715 430.693 220.659 433.723 220.659 437.456C220.659 441.253 221.8 444.315 224.083 446.64C226.387 448.965 229.139 450.128 232.339 450.128C233.918 450.128 235.283 449.904 236.435 449.456C237.587 449.008 238.622 448.379 239.539 447.568C240.478 446.757 241.48 445.499 242.547 443.792L246.931 445.872C245.779 448.197 244.499 449.968 243.091 451.184C241.683 452.4 240.104 453.317 238.355 453.936C236.627 454.555 234.558 454.864 232.147 454.864ZM250.896 454V421.008H255.824V426.736L255.056 425.968H255.952C256.933 424.304 258.416 422.917 260.4 421.808C262.384 420.699 264.485 420.144 266.704 420.144C270.544 420.144 273.509 421.296 275.6 423.6C277.712 425.883 278.768 428.987 278.768 432.912V454H273.648V433.744C273.648 430.928 272.976 428.752 271.632 427.216C270.288 425.659 268.219 424.88 265.424 424.88C262.821 424.88 260.603 425.883 258.768 427.888C256.933 429.893 256.016 432.357 256.016 435.28V454H250.896ZM294.473 454.864C292.041 454.864 290.025 454.117 288.425 452.624C286.847 451.131 286.057 448.88 286.057 445.872V412.144H291.145V445.008C291.145 446.843 291.497 448.165 292.201 448.976C292.905 449.765 293.94 450.16 295.305 450.16C295.732 450.16 296.159 450.128 296.585 450.064C297.033 449.979 297.588 449.84 298.249 449.648C298.932 449.435 299.273 449.328 299.273 449.328V454.032C299.273 454.032 298.964 454.117 298.345 454.288C297.727 454.48 297.108 454.619 296.489 454.704C295.871 454.811 295.199 454.864 294.473 454.864ZM280.425 425.552V421.008H299.305V425.552H280.425ZM336.389 454.864C329.733 454.864 324.176 452.581 319.717 448.016C315.28 443.451 313.061 437.797 313.061 431.056C313.061 424.293 315.28 418.651 319.717 414.128C324.176 409.584 329.733 407.312 336.389 407.312C343.024 407.312 348.57 409.573 353.029 414.096C357.509 418.619 359.749 424.261 359.749 431.024C359.749 437.744 357.52 443.397 353.061 447.984C348.602 452.571 343.045 454.864 336.389 454.864ZM336.389 449.968C341.616 449.968 345.936 448.176 349.349 444.592C352.784 440.987 354.501 436.464 354.501 431.024C354.501 425.563 352.773 421.061 349.317 417.52C345.882 413.979 341.573 412.208 336.389 412.208C331.184 412.208 326.874 413.989 323.461 417.552C320.048 421.115 318.341 425.605 318.341 431.024C318.341 436.485 320.037 441.008 323.429 444.592C326.842 448.176 331.162 449.968 336.389 449.968ZM363.844 454V421.008H368.772V426.768L368.164 426.288H368.9C369.753 424.432 371.076 422.949 372.868 421.84C374.66 420.709 376.494 420.144 378.372 420.144C378.82 420.144 379.321 420.176 379.876 420.24C380.43 420.304 380.932 420.4 381.38 420.528C381.828 420.635 382.052 420.688 382.052 420.688V425.968C382.052 425.968 381.774 425.893 381.22 425.744C380.665 425.595 380.078 425.488 379.46 425.424C378.841 425.339 378.35 425.296 377.988 425.296C375.556 425.296 373.444 426.256 371.652 428.176C369.86 430.075 368.964 432.507 368.964 435.472V454H363.844ZM398.008 454.864C393.187 454.864 389.187 453.221 386.008 449.936C382.851 446.651 381.272 442.469 381.272 437.392C381.272 432.336 382.872 428.197 386.072 424.976C389.293 421.755 393.293 420.144 398.072 420.144C400.163 420.144 402.072 420.453 403.8 421.072C405.549 421.669 407.128 422.576 408.536 423.792C409.944 425.008 411.245 426.853 412.44 429.328L407.8 431.312C406.883 429.605 405.976 428.325 405.08 427.472C404.184 426.619 403.128 425.968 401.912 425.52C400.717 425.072 399.384 424.848 397.912 424.848C394.755 424.848 392.045 426.011 389.784 428.336C387.544 430.661 386.424 433.68 386.424 437.392C386.424 441.125 387.544 444.187 389.784 446.576C392.024 448.944 394.733 450.128 397.912 450.128C399.363 450.128 400.685 449.904 401.88 449.456C403.075 449.008 404.131 448.357 405.048 447.504C405.965 446.651 406.947 445.317 407.992 443.504L412.536 445.648C411.32 448.016 410.019 449.808 408.632 451.024C407.267 452.24 405.709 453.189 403.96 453.872C402.211 454.533 400.227 454.864 398.008 454.864ZM415.411 454V408.176H420.499V425.968H420.627C421.608 424.283 423.059 422.896 424.979 421.808C426.899 420.699 428.979 420.144 431.219 420.144C435.059 420.144 438.024 421.307 440.115 423.632C442.227 425.936 443.283 429.029 443.283 432.912V454H438.163V433.744C438.163 430.992 437.48 428.827 436.115 427.248C434.771 425.669 432.755 424.88 430.067 424.88C427.486 424.88 425.246 425.915 423.347 427.984C421.47 430.032 420.531 432.507 420.531 435.408V454H415.411ZM463.042 454.864C458.285 454.864 454.317 453.232 451.138 449.968C447.981 446.704 446.402 442.533 446.402 437.456C446.402 432.464 447.97 428.336 451.106 425.072C454.242 421.787 458.114 420.144 462.722 420.144C467.458 420.144 471.277 421.595 474.178 424.496C477.079 427.376 478.53 430.992 478.53 435.344V438.576H449.314V434.224H473.122C473.015 431.536 472.013 429.307 470.114 427.536C468.237 425.765 465.773 424.88 462.722 424.88C459.522 424.88 456.855 426.043 454.722 428.368C452.61 430.693 451.554 433.723 451.554 437.456C451.554 441.253 452.695 444.315 454.978 446.64C457.282 448.965 460.034 450.128 463.234 450.128C464.813 450.128 466.178 449.904 467.33 449.456C468.482 449.008 469.517 448.379 470.434 447.568C471.373 446.757 472.375 445.499 473.442 443.792L477.826 445.872C476.674 448.197 475.394 449.968 473.986 451.184C472.578 452.4 470.999 453.317 469.25 453.936C467.522 454.555 465.453 454.864 463.042 454.864ZM492.959 454.864C490.804 454.864 488.916 454.587 487.295 454.032C485.695 453.477 484.276 452.656 483.039 451.568C481.823 450.48 480.895 449.317 480.255 448.08C479.636 446.821 479.327 446.192 479.327 446.192L483.903 444.08C483.903 444.08 484.18 444.56 484.735 445.52C485.29 446.48 485.962 447.323 486.751 448.048C487.54 448.773 488.447 449.328 489.471 449.712C490.516 450.096 491.796 450.288 493.311 450.288C495.423 450.288 497.14 449.851 498.463 448.976C499.807 448.101 500.479 446.864 500.479 445.264C500.479 443.813 499.935 442.693 498.847 441.904C497.78 441.093 495.658 440.315 492.479 439.568C488.084 438.544 484.991 437.232 483.199 435.632C481.428 434.032 480.543 431.963 480.543 429.424C480.543 426.736 481.706 424.517 484.031 422.768C486.378 421.019 489.279 420.144 492.735 420.144C494.548 420.144 496.138 420.357 497.503 420.784C498.89 421.211 500.148 421.883 501.279 422.8C502.41 423.696 503.274 424.656 503.871 425.68C504.468 426.683 504.767 427.184 504.767 427.184L500.351 429.36C500.351 429.36 500.106 428.997 499.615 428.272C499.146 427.547 498.57 426.917 497.887 426.384C497.204 425.829 496.415 425.424 495.519 425.168C494.644 424.912 493.642 424.784 492.511 424.784C490.463 424.784 488.81 425.221 487.551 426.096C486.314 426.971 485.695 428.005 485.695 429.2C485.695 430.544 486.239 431.632 487.327 432.464C488.436 433.275 490.676 434.075 494.047 434.864C498.314 435.867 501.322 437.157 503.071 438.736C504.82 440.293 505.695 442.341 505.695 444.88C505.695 447.931 504.5 450.363 502.111 452.176C499.743 453.968 496.692 454.864 492.959 454.864ZM519.556 454.864C517.124 454.864 515.108 454.117 513.508 452.624C511.929 451.131 511.14 448.88 511.14 445.872V412.144H516.228V445.008C516.228 446.843 516.58 448.165 517.284 448.976C517.988 449.765 519.023 450.16 520.388 450.16C520.815 450.16 521.241 450.128 521.668 450.064C522.116 449.979 522.671 449.84 523.332 449.648C524.015 449.435 524.356 449.328 524.356 449.328V454.032C524.356 454.032 524.047 454.117 523.428 454.288C522.809 454.48 522.191 454.619 521.572 454.704C520.953 454.811 520.281 454.864 519.556 454.864ZM505.508 425.552V421.008H524.388V425.552H505.508ZM527.608 454V421.008H532.536V426.768L531.928 426.288H532.664C533.518 424.432 534.84 422.949 536.632 421.84C538.424 420.709 540.259 420.144 542.136 420.144C542.584 420.144 543.086 420.176 543.64 420.24C544.195 420.304 544.696 420.4 545.144 420.528C545.592 420.635 545.816 420.688 545.816 420.688V425.968C545.816 425.968 545.539 425.893 544.984 425.744C544.43 425.595 543.843 425.488 543.224 425.424C542.606 425.339 542.115 425.296 541.752 425.296C539.32 425.296 537.208 426.256 535.416 428.176C533.624 430.075 532.728 432.507 532.728 435.472V454H527.608ZM557.828 454.864C554.18 454.864 551.193 453.851 548.868 451.824C546.543 449.797 545.38 447.163 545.38 443.92C545.38 440.613 546.66 437.968 549.22 435.984C551.78 433.979 555.108 432.976 559.204 432.976C560.932 432.976 562.681 433.179 564.452 433.584C566.223 433.968 567.663 434.48 568.772 435.12V433.008C568.772 430.512 567.897 428.528 566.148 427.056C564.399 425.563 562.233 424.816 559.652 424.816C558.265 424.816 557.081 424.987 556.1 425.328C555.119 425.648 554.276 426.075 553.572 426.608C552.868 427.12 552.175 427.728 551.492 428.432C550.831 429.136 550.5 429.488 550.5 429.488L546.564 426.576C546.564 426.576 546.98 426.117 547.812 425.2C548.665 424.261 549.647 423.408 550.756 422.64C551.865 421.851 553.124 421.243 554.532 420.816C555.94 420.368 557.732 420.144 559.908 420.144C564.111 420.144 567.46 421.296 569.956 423.6C572.473 425.904 573.732 429.008 573.732 432.912V454H568.804V446.416L570.5 448.912H568.676C567.567 450.768 566.041 452.229 564.1 453.296C562.159 454.341 560.068 454.864 557.828 454.864ZM558.276 450.16C561.284 450.16 563.78 449.083 565.764 446.928C567.769 444.773 568.772 442.405 568.772 439.824V439.664C567.684 438.917 566.34 438.341 564.74 437.936C563.161 437.509 561.508 437.296 559.78 437.296C556.943 437.296 554.713 437.861 553.092 438.992C551.471 440.101 550.66 441.744 550.66 443.92C550.66 445.819 551.364 447.333 552.772 448.464C554.18 449.595 556.015 450.16 558.276 450.16ZM588.501 454.864C586.069 454.864 584.053 454.117 582.453 452.624C580.874 451.131 580.085 448.88 580.085 445.872V412.144H585.173V445.008C585.173 446.843 585.525 448.165 586.229 448.976C586.933 449.765 587.968 450.16 589.333 450.16C589.76 450.16 590.186 450.128 590.613 450.064C591.061 449.979 591.616 449.84 592.277 449.648C592.96 449.435 593.301 449.328 593.301 449.328V454.032C593.301 454.032 592.992 454.117 592.373 454.288C591.754 454.48 591.136 454.619 590.517 454.704C589.898 454.811 589.226 454.864 588.501 454.864ZM574.453 425.552V421.008H593.333V425.552H574.453ZM597.321 454V421.008H602.441V454H597.321ZM599.849 415.28C598.889 415.28 598.057 414.939 597.353 414.256C596.671 413.552 596.329 412.709 596.329 411.728C596.329 410.725 596.671 409.893 597.353 409.232C598.057 408.571 598.889 408.24 599.849 408.24C600.852 408.24 601.684 408.571 602.345 409.232C603.028 409.893 603.369 410.725 603.369 411.728C603.369 412.709 603.028 413.552 602.345 414.256C601.684 414.939 600.852 415.28 599.849 415.28ZM623.629 454.864C618.787 454.864 614.744 453.189 611.501 449.84C608.28 446.491 606.669 442.373 606.669 437.488C606.669 432.56 608.291 428.443 611.533 425.136C614.776 421.808 618.808 420.144 623.629 420.144C628.451 420.144 632.483 421.819 635.725 425.168C638.989 428.496 640.621 432.603 640.621 437.488C640.621 442.373 639 446.491 635.757 449.84C632.536 453.189 628.493 454.864 623.629 454.864ZM623.629 450.096C626.915 450.096 629.709 448.912 632.013 446.544C634.317 444.155 635.469 441.136 635.469 437.488C635.469 433.797 634.307 430.789 631.981 428.464C629.677 426.117 626.893 424.944 623.629 424.944C620.344 424.944 617.549 426.117 615.245 428.464C612.963 430.811 611.821 433.819 611.821 437.488C611.821 441.136 612.963 444.155 615.245 446.544C617.528 448.912 620.323 450.096 623.629 450.096ZM644.121 454V421.008H649.049V426.736L648.281 425.968H649.177C650.158 424.304 651.641 422.917 653.625 421.808C655.609 420.699 657.71 420.144 659.929 420.144C663.769 420.144 666.734 421.296 668.825 423.6C670.937 425.883 671.993 428.987 671.993 432.912V454H666.873V433.744C666.873 430.928 666.201 428.752 664.857 427.216C663.513 425.659 661.444 424.88 658.649 424.88C656.046 424.88 653.828 425.883 651.993 427.888C650.158 429.893 649.241 432.357 649.241 435.28V454H644.121Z" fill="black"/>
</g>
<defs>
<clipPath id="clip0_213_137">
<rect width="1500" height="500" fill="white"/>
</clipPath>
</defs>
</svg>
