<svg width="1500" height="500" viewBox="0 0 1500 500" fill="none" xmlns="http://www.w3.org/2000/svg">
<g clip-path="url(#clip0_213_137)">
<rect width="1500" height="500" fill="#1E3D59"/>
<rect x="994" y="124.32" width="70.2847" height="24.7007" transform="rotate(-90 994 124.32)" fill="#FA9819"/>
<rect x="1023.67" y="124.32" width="70.2847" height="21.1893" transform="rotate(-90 1023.67 124.32)" fill="#F45F00"/>
<rect x="1049.62" y="124.32" width="70.2847" height="13.773" transform="rotate(-90 1049.62 124.32)" fill="#48749E"/>
<path d="M1088.14 118V61.6741H1096.65V118H1088.14ZM1101.71 118V68.5584H1108.35L1110.14 78.1129V118H1101.71ZM1132.71 118V89.7536C1132.71 84.0237 1131.85 79.9626 1130.12 77.5705C1128.43 75.1784 1125.84 73.9824 1122.36 73.9824C1118.89 73.9824 1115.94 75.2619 1113.52 77.8209C1111.1 80.3799 1109.89 83.6064 1109.89 87.5006L1105.8 84.9138C1105.8 80.8527 1107.62 77.0281 1111.27 73.44C1114.94 69.8518 1119.65 68.0577 1125.41 68.0577C1131.14 68.0577 1135.19 69.9909 1137.55 73.8572C1139.94 77.6957 1141.14 82.9806 1141.14 89.7119V118H1132.71ZM1149.11 118V74.4413H1139.05V68.5584H1149.11V65.4292C1149.11 60.5059 1151.07 57.0707 1154.99 55.1236C1158.94 53.1487 1164.21 52.1613 1170.8 52.1613H1172.22V57.8356H1170.97C1166.74 57.8356 1163.45 58.3363 1161.08 59.3376C1158.72 60.339 1157.54 62.3834 1157.54 65.4709V68.5584H1171.68V74.4413H1157.54V118H1149.11ZM1191.55 118.417C1183.88 118.417 1178.35 116.192 1174.99 111.742C1171.6 107.263 1169.9 101.074 1169.9 93.1749C1169.9 84.8025 1171.64 78.5302 1175.11 74.3579C1178.56 70.1578 1184 68.0577 1191.43 68.0577C1199.08 68.0577 1204.56 70.1578 1207.87 74.3579C1211.15 78.558 1212.79 84.7886 1212.79 93.0497C1212.79 94.0232 1212.73 94.9272 1212.62 95.7617H1177.16V90.5046H1204.28C1204.06 84.4409 1202.96 80.1573 1200.98 77.654C1198.7 74.9837 1195.52 73.6486 1191.43 73.6486C1187.45 73.6486 1184.24 75.0532 1181.79 77.8626C1179.31 80.6997 1178.08 85.8038 1178.08 93.1749C1178.08 100.157 1179.27 105.163 1181.66 108.195C1184.03 111.283 1187.32 112.826 1191.55 112.826V118.417ZM1191.55 112.826C1193.97 112.826 1196.09 112.423 1197.89 111.616C1199.7 110.81 1201.11 109.433 1202.11 107.486C1203.05 105.539 1203.76 103.341 1204.24 100.894L1211.83 102.938C1211.36 106.332 1210.27 109.21 1208.58 111.575C1206.85 113.967 1204.63 115.705 1201.9 116.79C1199.17 117.875 1195.72 118.417 1191.55 118.417V112.826ZM1244.13 91.5894C1244.13 84.8025 1243.31 80.1852 1241.67 77.7374C1240.06 75.2619 1237.68 74.0241 1234.54 74.0241C1230.95 74.0241 1228.13 75.234 1226.07 77.654C1224.01 80.0461 1222.98 82.7581 1222.98 85.7899L1219.73 83.4117C1219.73 79.1838 1221.34 75.5817 1224.57 72.6055C1227.79 69.6293 1232.13 68.1412 1237.58 68.1412C1243.2 68.1412 1247.1 70.0187 1249.27 73.7737C1251.46 77.501 1252.56 83.4395 1252.56 91.5894H1244.13ZM1214.59 118V68.5584H1221.23L1223.02 78.1129V118H1214.59ZM1273.95 118.417C1266.27 118.417 1260.75 116.192 1257.39 111.742C1253.99 107.263 1252.3 101.074 1252.3 93.1749C1252.3 84.8025 1254.04 78.5302 1257.51 74.3579C1260.96 70.1578 1266.4 68.0577 1273.83 68.0577C1281.48 68.0577 1286.96 70.1578 1290.27 74.3579C1293.55 78.558 1295.19 84.7886 1295.19 93.0497C1295.19 94.0232 1295.13 94.9272 1295.02 95.7617H1259.56V90.5046H1286.68C1286.45 84.4409 1285.36 80.1573 1283.38 77.654C1281.1 74.9837 1277.92 73.6486 1273.83 73.6486C1269.85 73.6486 1266.64 75.0532 1264.19 77.8626C1261.71 80.6997 1260.48 85.8038 1260.48 93.1749C1260.48 100.157 1261.67 105.163 1264.06 108.195C1266.43 111.283 1269.72 112.826 1273.95 112.826V118.417ZM1273.95 112.826C1276.37 112.826 1278.49 112.423 1280.29 111.616C1282.1 110.81 1283.51 109.433 1284.51 107.486C1285.45 105.539 1286.16 103.341 1286.64 100.894L1294.23 102.938C1293.76 106.332 1292.67 109.21 1290.97 111.575C1289.25 113.967 1287.03 115.705 1284.3 116.79C1281.57 117.875 1278.12 118.417 1273.95 118.417V112.826ZM1296.99 118V68.5584H1303.63L1305.42 78.1129V118H1296.99ZM1327.99 118V89.7536C1327.99 84.0237 1327.13 79.9626 1325.41 77.5705C1323.71 75.1784 1321.12 73.9824 1317.65 73.9824C1314.17 73.9824 1311.22 75.2619 1308.8 77.8209C1306.38 80.3799 1305.17 83.6064 1305.17 87.5006L1301.08 84.9138C1301.08 80.8527 1302.9 77.0281 1306.55 73.44C1310.22 69.8518 1314.93 68.0577 1320.69 68.0577C1326.42 68.0577 1330.47 69.9909 1332.83 73.8572C1335.23 77.6957 1336.42 82.9806 1336.42 89.7119V118H1327.99ZM1359.21 118.334C1353.25 118.334 1348.44 117.263 1344.77 115.121C1341.1 112.979 1338.83 109.141 1337.97 103.606L1345.44 101.061C1345.91 105.233 1347.33 108.223 1349.69 110.031C1352.08 111.839 1355.3 112.743 1359.33 112.743C1363.14 112.743 1365.99 112.075 1367.88 110.74C1369.8 109.377 1370.76 107.597 1370.76 105.4C1370.76 102.257 1369.3 100.157 1366.38 99.0995C1363.46 98.0147 1359.79 96.9856 1355.37 96.012C1350.33 94.9272 1346.23 93.3835 1343.06 91.3808C1339.92 89.3503 1338.34 85.9846 1338.34 81.2839C1338.34 77.0003 1340.08 73.7459 1343.56 71.5207C1347.04 69.2677 1351.81 68.1412 1357.87 68.1412C1363.91 68.1412 1368.66 69.2399 1372.14 71.4373C1375.64 73.6069 1377.8 77.2228 1378.61 82.2852L1371.14 84.8303C1370.67 81.1865 1369.29 78.4189 1367.01 76.5275C1364.75 74.636 1361.68 73.6903 1357.79 73.6903C1354.03 73.6903 1351.24 74.3718 1349.4 75.7347C1347.59 77.0977 1346.69 78.9335 1346.69 81.2421C1346.69 84.1349 1348.07 86.1098 1350.82 87.1668C1353.6 88.2238 1357.12 89.239 1361.38 90.2126C1366.41 91.2417 1370.62 92.702 1374.02 94.5935C1377.44 96.4571 1379.15 99.8645 1379.15 104.816C1379.15 109.377 1377.45 112.771 1374.06 114.996C1370.67 117.221 1365.71 118.334 1359.21 118.334ZM1392.38 118L1377.94 68.5584H1386.75L1398.76 112.201H1398.85L1410.74 68.5584H1419.58L1405.27 118H1392.38ZM1379.95 137.234V131.435C1384.67 131.435 1388.37 130.545 1391.04 128.765C1393.71 127.012 1395.84 123.424 1397.43 118H1405.27C1403.02 125.733 1399.83 130.865 1395.72 133.396C1391.6 135.955 1386.34 137.234 1379.95 137.234ZM1439.65 118.334C1433.7 118.334 1428.88 117.263 1425.21 115.121C1421.54 112.979 1419.27 109.141 1418.41 103.606L1425.88 101.061C1426.35 105.233 1427.77 108.223 1430.14 110.031C1432.53 111.839 1435.74 112.743 1439.77 112.743C1443.58 112.743 1446.44 112.075 1448.33 110.74C1450.25 109.377 1451.21 107.597 1451.21 105.4C1451.21 102.257 1449.75 100.157 1446.83 99.0995C1443.9 98.0147 1440.23 96.9856 1435.81 96.012C1430.78 94.9272 1426.67 93.3835 1423.5 91.3808C1420.36 89.3503 1418.79 85.9846 1418.79 81.2839C1418.79 77.0003 1420.53 73.7459 1424 71.5207C1427.48 69.2677 1432.25 68.1412 1438.31 68.1412C1444.35 68.1412 1449.11 69.2399 1452.58 71.4373C1456.09 73.6069 1458.24 77.2228 1459.05 82.2852L1451.58 84.8303C1451.11 81.1865 1449.73 78.4189 1447.45 76.5275C1445.2 74.636 1442.12 73.6903 1438.23 73.6903C1434.48 73.6903 1431.68 74.3718 1429.84 75.7347C1428.04 77.0977 1427.13 78.9335 1427.13 81.2421C1427.13 84.1349 1428.51 86.1098 1431.26 87.1668C1434.04 88.2238 1437.56 89.239 1441.82 90.2126C1446.85 91.2417 1451.07 92.702 1454.46 94.5935C1457.88 96.4571 1459.59 99.8645 1459.59 104.816C1459.59 109.377 1457.9 112.771 1454.5 114.996C1451.11 117.221 1446.16 118.334 1439.65 118.334Z" fill="white"/>
<path d="M146.734 180.201C144.909 184.948 142.444 191.885 139.341 201.013C136.42 209.959 133.499 221.643 130.578 236.065H125.101C125.648 233.51 126.014 230.862 126.196 228.124C126.561 225.386 126.744 222.83 126.744 220.456C126.744 213.701 125.375 207.586 122.636 202.109C120.08 196.449 115.973 191.976 110.313 188.69C104.654 185.222 97.1686 183.487 87.8579 183.487C76.9041 183.487 67.7759 186.317 60.4734 191.976C53.1709 197.636 49.5196 206.399 49.5196 218.266C49.5196 225.203 51.1627 231.684 54.4488 237.709C57.9175 243.551 62.2078 249.21 67.3195 254.687C72.6139 259.981 78.182 265.367 84.024 270.844C90.0486 276.138 95.6168 281.615 100.729 287.274C106.023 292.934 110.313 298.958 113.599 305.348C117.068 311.555 118.802 318.493 118.802 326.16C118.802 335.654 116.703 343.778 112.504 350.532C108.305 357.287 102.828 362.855 96.0732 367.237C89.3184 371.436 81.8333 374.539 73.618 376.548C65.5852 378.738 57.5524 379.834 49.5196 379.834C42.2171 379.834 36.1013 379.104 31.1721 377.643C26.2429 376.365 22.1352 374.722 18.8491 372.714C15.5629 370.706 12.8245 368.88 10.6337 367.237C8.62552 365.594 6.70861 364.499 4.88298 363.951C3.23992 363.403 1.87069 363.129 0.775314 363.129C-1.598 363.129 -3.6062 364.407 -5.24926 366.963C-6.70977 369.336 -8.44412 372.988 -10.4523 377.917H-15.9292C-14.2861 373.901 -12.5518 369.245 -10.7262 363.951C-8.90053 358.657 -6.89233 351.902 -4.70158 343.686C-2.51082 335.288 -0.0462194 324.791 2.69223 312.194H8.16912C7.43886 316.028 6.79989 319.771 6.2522 323.422C5.70452 326.891 5.52195 330.542 5.70452 334.376C6.25221 346.79 10.086 356.557 17.206 363.677C24.3259 370.797 35.371 374.357 50.3412 374.357C62.2078 374.357 71.8836 371.618 79.3687 366.142C86.8538 360.665 90.5963 351.993 90.5963 340.126C90.5963 332.459 89.0445 325.613 85.941 319.588C83.02 313.563 79.0949 307.995 74.1656 302.884C69.419 297.589 64.3072 292.477 58.8304 287.548C53.536 282.619 48.4243 277.507 43.4951 272.213C38.7484 266.736 34.8233 260.711 31.7197 254.139C28.7987 247.567 27.3382 240.082 27.3382 231.684C27.3382 222.921 29.0726 215.253 32.5413 208.681C36.01 201.926 40.5741 196.358 46.2335 191.976C52.0755 187.412 58.5565 184.035 65.6765 181.844C72.7964 179.471 80.0989 178.284 87.584 178.284C95.2517 178.284 101.824 179.197 107.301 181.023C112.778 182.848 118.072 185.769 123.184 189.786C125.375 191.429 127.2 192.707 128.661 193.62C130.121 194.35 131.308 194.715 132.221 194.715C134.777 194.715 137.789 189.877 141.258 180.201H146.734ZM221.415 235.244L220.593 240.721H135.428L136.797 235.244H221.415ZM151.858 352.723C150.215 358.748 150.58 363.129 152.954 365.868C155.51 368.424 158.796 369.702 162.812 369.702C166.829 369.702 170.845 367.967 174.861 364.499C179.06 361.03 183.168 353.636 187.184 342.317L191.018 331.637H196.221L190.47 348.889C186.454 360.756 181.251 368.88 174.861 373.262C168.654 377.643 161.352 379.834 152.954 379.834C145.469 379.834 139.718 378.282 135.702 375.178C131.868 371.892 129.586 367.328 128.855 361.486C128.125 355.644 128.855 348.981 131.046 341.496L173.492 193.62C177.874 193.437 182.164 193.072 186.363 192.524C190.744 191.976 194.669 191.064 198.138 189.786L151.858 352.723ZM224.958 371.071C229.339 371.071 234.36 368.332 240.019 362.855C245.679 357.196 251.429 349.62 257.271 340.126C263.113 330.633 268.499 319.862 273.428 307.813C278.357 295.764 282.282 283.258 285.204 270.296L280.548 299.871C273.611 319.223 266.673 334.832 259.736 346.699C252.799 358.383 245.77 366.872 238.65 372.166C231.53 377.278 224.319 379.834 217.016 379.834C208.436 379.834 201.955 376.73 197.573 370.523C193.374 364.316 191.275 356.374 191.275 346.699C191.275 337.936 192.735 328.442 195.656 318.219C198.577 307.813 202.594 297.498 207.705 287.274C213 277.051 219.024 267.74 225.779 259.342C232.534 250.944 239.837 244.19 247.687 239.078C255.72 233.966 263.844 231.41 272.059 231.41C278.449 231.41 283.287 234.605 286.573 240.995C290.041 247.202 290.772 255.965 288.763 267.284L285.751 268.927C287.029 259.251 286.39 251.492 283.834 245.65C281.278 239.625 277.079 236.613 271.237 236.613C266.491 236.613 261.47 238.986 256.176 243.733C251.064 248.297 246.044 254.596 241.115 262.628C236.368 270.479 231.986 279.333 227.97 289.191C224.136 299.05 221.033 309.273 218.659 319.862C216.469 330.268 215.373 340.309 215.373 349.985C215.373 357.835 216.195 363.312 217.838 366.415C219.663 369.519 222.037 371.071 224.958 371.071ZM293.967 235.244C298.348 235.061 302.73 234.696 307.111 234.149C311.493 233.601 315.509 232.688 319.16 231.41L284.93 352.449C284.565 354.092 284.017 356.283 283.287 359.022C282.739 361.578 282.739 363.951 283.287 366.142C284.017 368.332 285.934 369.428 289.037 369.428C292.689 369.428 296.249 367.42 299.717 363.403C303.186 359.387 306.655 352.084 310.123 341.496L313.409 331.363H318.613L311.766 351.354C309.211 358.657 306.107 364.407 302.456 368.606C298.987 372.623 295.336 375.452 291.502 377.095C287.668 378.921 283.926 379.834 280.274 379.834C273.154 379.834 268.134 377.461 265.213 372.714C262.84 368.515 262.201 363.677 263.296 358.2C264.391 352.541 265.669 346.881 267.13 341.222L293.967 235.244ZM338.175 352.723C336.715 358.018 336.258 362.216 336.806 365.32C337.354 368.241 339.362 369.702 342.831 369.702C346.482 369.702 349.859 367.693 352.963 363.677C356.249 359.478 359.718 352.176 363.369 341.769L366.929 331.637H372.132L365.286 351.628C362.913 358.565 359.992 364.133 356.523 368.332C353.237 372.349 349.585 375.27 345.569 377.095C341.553 378.921 337.171 379.834 332.425 379.834C326.4 379.834 321.927 378.647 319.006 376.274C316.268 374.083 314.533 371.071 313.803 367.237C313.255 363.403 313.347 359.295 314.077 354.914C314.99 350.35 316.085 345.877 317.363 341.496L362 193.346C363.825 187.139 363.643 182.574 361.452 179.653C359.261 176.732 353.693 175.272 344.748 175.272L346.664 169.521C356.705 169.339 365.56 168.335 373.227 166.509C380.895 164.501 388.289 161.762 395.409 158.294L338.175 352.723ZM392.217 352.723C390.756 358.018 390.3 362.216 390.848 365.32C391.395 368.241 393.403 369.702 396.872 369.702C400.523 369.702 403.901 367.693 407.004 363.677C410.291 359.478 413.759 352.176 417.411 341.769L420.97 331.637H426.174L419.327 351.628C416.954 358.565 414.033 364.133 410.564 368.332C407.278 372.349 403.627 375.27 399.611 377.095C395.594 378.921 391.213 379.834 386.466 379.834C380.441 379.834 375.969 378.647 373.048 376.274C370.309 374.083 368.575 371.071 367.845 367.237C367.297 363.403 367.388 359.295 368.118 354.914C369.031 350.35 370.127 345.877 371.405 341.496L416.041 193.346C417.867 187.139 417.684 182.574 415.494 179.653C413.303 176.732 407.735 175.272 398.789 175.272L400.706 169.521C410.747 169.339 419.601 168.335 427.269 166.509C434.937 164.501 442.33 161.762 449.45 158.294L392.217 352.723ZM470.083 185.404C470.996 180.658 473.369 176.55 477.203 173.081C481.219 169.613 485.509 167.878 490.073 167.878C494.82 167.878 498.471 169.613 501.027 173.081C503.766 176.55 504.678 180.658 503.766 185.404C502.853 190.151 500.388 194.259 496.372 197.727C492.538 201.196 488.248 202.93 483.501 202.93C478.937 202.93 475.286 201.196 472.547 197.727C469.992 194.259 469.17 190.151 470.083 185.404ZM461.594 258.521C465.427 247.202 464.149 241.542 457.76 241.542C453.561 241.542 449.818 243.824 446.532 248.388C443.246 252.953 439.777 259.981 436.126 269.474L432.292 279.607H427.089L434.209 259.616C436.948 251.948 440.234 246.106 444.068 242.09C447.901 238.074 451.918 235.335 456.117 233.875C460.498 232.232 464.515 231.41 468.166 231.41C474.008 231.41 478.298 232.597 481.037 234.97C483.775 237.343 485.418 240.447 485.966 244.281C486.513 248.115 486.331 252.314 485.418 256.878C484.505 261.259 483.319 265.549 481.858 269.748L452.557 352.723C450.731 358.018 450.092 362.216 450.64 365.32C451.37 368.241 453.47 369.702 456.938 369.702C460.59 369.702 464.058 367.693 467.344 363.677C470.63 359.661 474.282 352.358 478.298 341.769L482.132 331.637H487.335L480.215 351.628C477.659 358.748 474.556 364.407 470.904 368.606C467.253 372.623 463.328 375.452 459.129 377.095C454.93 378.921 450.731 379.834 446.532 379.834C438.682 379.834 433.388 378.008 430.649 374.357C427.911 370.706 426.907 365.959 427.637 360.117C428.367 354.275 429.919 348.068 432.292 341.496L461.594 258.521ZM562.302 236.887C556.46 236.887 550.801 239.26 545.324 244.007C540.029 248.571 535.1 254.869 530.536 262.902C526.155 270.752 522.229 279.607 518.761 289.465C515.475 299.324 512.919 309.547 511.093 320.136C509.267 330.724 508.355 340.857 508.355 350.532C508.355 358.748 509.633 364.772 512.189 368.606C514.927 372.44 518.852 374.357 523.964 374.357C529.806 374.357 535.374 372.075 540.668 367.511C546.145 362.764 551.166 356.466 555.73 348.616C560.294 340.583 564.219 331.637 567.505 321.779C570.791 311.92 573.347 301.788 575.173 291.382C576.998 280.793 577.911 270.57 577.911 260.711C577.911 252.314 576.633 246.289 574.077 242.638C571.521 238.804 567.596 236.887 562.302 236.887ZM484.804 336.84C484.804 328.807 485.899 320.044 488.09 310.551C490.281 301.058 493.567 291.656 497.949 282.345C502.33 273.034 507.624 264.545 513.832 256.878C520.221 249.21 527.615 243.094 536.013 238.53C544.411 233.783 553.722 231.41 563.945 231.41C575.264 231.41 584.301 234.97 591.056 242.09C597.993 249.027 601.462 259.799 601.462 274.404C601.462 282.436 600.366 291.199 598.176 300.693C595.985 310.186 592.699 319.588 588.317 328.899C583.936 338.209 578.55 346.699 572.16 354.366C565.953 362.034 558.651 368.241 550.253 372.988C541.855 377.552 532.544 379.834 522.321 379.834C511.002 379.834 501.874 376.274 494.936 369.154C488.181 362.034 484.804 351.263 484.804 336.84ZM624.268 376H600.443L633.305 258.521C634.035 256.33 634.583 253.957 634.948 251.401C635.496 248.662 635.404 246.38 634.674 244.555C633.944 242.546 632.118 241.542 629.197 241.542C625.181 241.542 621.621 243.551 618.517 247.567C615.414 251.401 611.945 258.703 608.111 269.474L604.551 279.607H599.348L606.194 259.616C610.211 248.115 615.14 240.538 620.982 236.887C627.006 233.236 632.94 231.41 638.782 231.41C644.259 231.41 648.184 232.597 650.557 234.97C653.113 237.343 654.482 240.447 654.665 244.281C655.03 247.932 654.756 252.04 653.843 256.604C653.113 260.985 652.2 265.367 651.105 269.748L624.268 376ZM636.865 319.04C643.254 302.61 649.462 288.826 655.486 277.69C661.511 266.553 667.444 257.608 673.286 250.853C679.128 243.916 685.061 238.986 691.086 236.065C697.293 232.962 703.683 231.41 710.255 231.41C718.836 231.41 724.678 233.51 727.781 237.709C731.067 241.725 732.528 246.928 732.163 253.318C731.798 259.525 730.52 266.006 728.329 272.761L701.766 352.723C700.123 357.652 699.393 361.76 699.575 365.046C699.94 368.15 702.131 369.702 706.147 369.702C709.616 369.702 712.994 367.785 716.28 363.951C719.748 360.117 723.4 352.723 727.233 341.769L730.793 331.637H735.996L729.15 351.628C726.594 359.295 723.4 365.138 719.566 369.154C715.915 373.17 711.989 375.909 707.79 377.369C703.774 379.012 699.849 379.834 696.015 379.834C691.634 379.834 687.982 379.104 685.061 377.643C682.323 376.183 680.223 374.266 678.763 371.892C676.755 368.606 676.116 364.316 676.846 359.022C677.576 353.727 679.037 347.885 681.228 341.496L707.243 263.176C708.156 260.62 708.886 257.608 709.434 254.139C710.164 250.488 710.073 247.293 709.16 244.555C708.247 241.634 705.6 240.173 701.218 240.173C696.837 240.173 692.181 242.09 687.252 245.924C682.323 249.758 677.211 255.235 671.917 262.355C666.623 269.292 661.419 277.69 656.308 287.548C651.196 297.224 646.267 307.995 641.52 319.862C636.956 331.546 632.757 344.051 628.923 357.379L636.865 319.04Z" fill="white"/>
<path d="M5.11743 455.33V406.799H12.5055L28.9762 447.061H29.1118L45.718 406.799H53.1061V455.33H47.7175V421.101L47.8531 415.272H47.7514L31.2468 455.33H26.8411L10.4721 415.475H10.3365L10.506 421.304V455.33H5.11743ZM71.9406 456.211C67.8964 456.211 64.7672 455.014 62.553 452.619C60.3614 450.201 59.2656 446.869 59.2656 442.621V420.355H64.6542V441.537C64.6542 444.677 65.3659 447.083 66.7893 448.755C68.2353 450.405 70.3365 451.229 73.0929 451.229C76.0074 451.229 78.4137 450.167 80.3115 448.044C82.232 445.897 83.1922 443.254 83.1922 440.113V420.355H88.5807V455.33H83.3955V447.603L85.8356 450.043H83.26C82.2207 451.896 80.6843 453.387 78.6509 454.517C76.6175 455.646 74.3807 456.211 71.9406 456.211ZM94.1949 455.33V406.799H99.5834V455.33H94.1949ZM116.945 456.211C114.37 456.211 112.246 455.432 110.574 453.873C108.902 452.291 108.066 449.908 108.066 446.722V411.002H113.421V445.841C113.421 447.784 113.794 449.185 114.539 450.043C115.285 450.879 116.38 451.297 117.826 451.297C118.278 451.297 118.73 451.263 119.182 451.195C119.657 451.105 120.244 450.958 120.944 450.755C121.667 450.529 122.029 450.416 122.029 450.416V455.33C122.029 455.33 121.701 455.42 121.046 455.601C120.391 455.805 119.736 455.951 119.08 456.042C118.425 456.155 117.714 456.211 116.945 456.211ZM102.101 425.134V420.355H122.063V425.134H102.101ZM126.256 455.33V420.355H131.645V455.33H126.256ZM128.967 414.391C127.951 414.391 127.07 414.029 126.324 413.306C125.601 412.561 125.239 411.668 125.239 410.629C125.239 409.589 125.601 408.72 126.324 408.019C127.07 407.319 127.951 406.969 128.967 406.969C130.029 406.969 130.91 407.319 131.611 408.019C132.334 408.72 132.695 409.589 132.695 410.629C132.695 411.668 132.334 412.561 131.611 413.306C130.91 414.029 130.029 414.391 128.967 414.391ZM147.314 455.33L166.191 406.799H172.02L190.795 455.33H184.796L170.291 416.898L169.105 413.34H169.003L167.783 416.898L153.177 455.33H147.314ZM155.346 441.842L157.142 436.724H180.018L181.882 441.842H155.346ZM207.098 470.174C204.749 470.174 202.613 469.869 200.693 469.259C198.795 468.649 197.101 467.768 195.609 466.616C194.141 465.463 192.989 464.209 192.153 462.854C191.339 461.498 190.933 460.82 190.933 460.82L195.643 458.177C195.643 458.177 195.994 458.73 196.694 459.837C197.417 460.945 198.264 461.893 199.236 462.684C200.207 463.498 201.348 464.119 202.659 464.548C203.992 464.978 205.483 465.192 207.132 465.192C210.95 465.192 213.865 464.108 215.876 461.939C217.909 459.792 218.926 456.81 218.926 452.992V449.331H218.79C217.683 451.094 216.057 452.574 213.91 453.771C211.764 454.946 209.199 455.533 206.217 455.533C201.563 455.533 197.632 453.839 194.423 450.45C191.238 447.038 189.645 442.7 189.645 437.436C189.645 432.239 191.238 427.947 194.423 424.558C197.609 421.169 201.676 419.474 206.624 419.474C209.245 419.474 211.673 420.05 213.91 421.203C216.17 422.332 217.864 423.79 218.994 425.574H220.451L219.095 427.472V420.355H224.315V452.924C224.315 458.279 222.801 462.492 219.773 465.565C216.768 468.638 212.543 470.174 207.098 470.174ZM207.132 450.585C210.589 450.585 213.47 449.388 215.774 446.993C218.079 444.598 219.22 441.39 219.197 437.368C219.175 433.414 218.022 430.274 215.74 427.947C213.458 425.597 210.578 424.422 207.098 424.422C203.641 424.422 200.761 425.608 198.456 427.981C196.174 430.33 195.033 433.482 195.033 437.436C195.033 441.525 196.174 444.745 198.456 447.095C200.738 449.422 203.63 450.585 207.132 450.585ZM245.696 456.211C240.657 456.211 236.455 454.483 233.088 451.026C229.722 447.569 228.039 443.163 228.039 437.809C228.039 432.522 229.699 428.15 233.021 424.693C236.364 421.214 240.476 419.474 245.357 419.474C250.372 419.474 254.417 421.011 257.489 424.083C260.562 427.133 262.099 430.974 262.099 435.606V438.961H231.089V434.386H256.439C256.303 431.539 255.23 429.178 253.219 427.303C251.208 425.405 248.588 424.456 245.357 424.456C241.945 424.456 239.098 425.699 236.816 428.184C234.557 430.647 233.427 433.855 233.427 437.809C233.427 441.83 234.647 445.073 237.087 447.535C239.55 449.998 242.476 451.229 245.865 451.229C247.56 451.229 249.017 450.992 250.237 450.518C251.48 450.043 252.587 449.377 253.558 448.518C254.552 447.637 255.614 446.293 256.744 444.485L261.387 446.688C260.167 449.151 258.8 451.026 257.286 452.314C255.795 453.602 254.123 454.573 252.27 455.228C250.44 455.884 248.249 456.211 245.696 456.211ZM265.584 455.33V420.355H270.804V426.422L269.956 425.642H270.905C271.967 423.88 273.537 422.411 275.616 421.236C277.717 420.062 279.954 419.474 282.326 419.474C286.37 419.474 289.5 420.694 291.714 423.134C293.951 425.552 295.069 428.839 295.069 432.996V455.33H289.68V433.844C289.68 430.884 288.969 428.579 287.545 426.93C286.122 425.281 283.93 424.456 280.971 424.456C278.192 424.456 275.831 425.518 273.888 427.642C271.945 429.766 270.973 432.375 270.973 435.47V455.33H265.584ZM311.568 456.211C308.993 456.211 306.869 455.432 305.197 453.873C303.525 452.291 302.689 449.908 302.689 446.722V411.002H308.044V445.841C308.044 447.784 308.416 449.185 309.162 450.043C309.908 450.879 311.003 451.297 312.449 451.297C312.901 451.297 313.353 451.263 313.805 451.195C314.279 451.105 314.867 450.958 315.567 450.755C316.29 450.529 316.652 450.416 316.652 450.416V455.33C316.652 455.33 316.324 455.42 315.669 455.601C315.014 455.805 314.359 455.951 313.703 456.042C313.048 456.155 312.336 456.211 311.568 456.211ZM296.724 425.134V420.355H316.686V425.134H296.724ZM355.895 456.211C348.846 456.211 342.972 453.805 338.272 448.993C333.573 444.158 331.223 438.17 331.223 431.031C331.223 423.869 333.573 417.893 338.272 413.103C342.972 408.313 348.846 405.918 355.895 405.918C362.922 405.918 368.796 408.313 373.518 413.103C378.263 417.87 380.635 423.846 380.635 431.031C380.635 438.125 378.274 444.101 373.552 448.959C368.83 453.794 362.944 456.211 355.895 456.211ZM355.895 451.06C361.431 451.06 366.006 449.162 369.621 445.366C373.258 441.571 375.077 436.792 375.077 431.031C375.077 425.247 373.258 420.48 369.621 416.729C365.983 412.956 361.408 411.069 355.895 411.069C350.382 411.069 345.818 412.956 342.204 416.729C338.589 420.502 336.781 425.269 336.781 431.031C336.781 436.792 338.577 441.571 342.17 445.366C345.785 449.162 350.36 451.06 355.895 451.06ZM384.873 455.33V420.355H390.092V426.456L389.448 425.947H390.194C391.12 423.982 392.521 422.411 394.396 421.236C396.294 420.062 398.248 419.474 400.259 419.474C400.711 419.474 401.219 419.508 401.784 419.576C402.372 419.644 402.903 419.734 403.377 419.847C403.852 419.96 404.089 420.016 404.089 420.016V425.574C404.089 425.574 403.795 425.495 403.208 425.337C402.643 425.179 402.033 425.066 401.378 424.998C400.722 424.908 400.214 424.863 399.852 424.863C397.254 424.863 395.006 425.879 393.108 427.913C391.21 429.946 390.261 432.533 390.261 435.674V455.33H384.873ZM421.089 456.211C415.961 456.211 411.713 454.483 408.347 451.026C405.003 447.547 403.331 443.118 403.331 437.741C403.331 432.386 405.025 428.003 408.415 424.592C411.826 421.18 416.062 419.474 421.123 419.474C423.36 419.474 425.394 419.802 427.224 420.457C429.076 421.09 430.748 422.05 432.239 423.338C433.731 424.625 435.109 426.58 436.374 429.201L431.494 431.302C430.5 429.472 429.528 428.105 428.579 427.201C427.63 426.297 426.512 425.608 425.224 425.134C423.959 424.659 422.535 424.422 420.954 424.422C417.61 424.422 414.741 425.653 412.346 428.116C409.951 430.579 408.753 433.787 408.753 437.741C408.753 441.695 409.94 444.937 412.312 447.468C414.684 449.998 417.565 451.263 420.954 451.263C422.513 451.263 423.925 451.026 425.19 450.552C426.455 450.054 427.574 449.354 428.545 448.45C429.517 447.524 430.556 446.101 431.663 444.18L436.476 446.451C435.21 448.936 433.844 450.834 432.375 452.144C430.929 453.432 429.268 454.438 427.393 455.161C425.54 455.861 423.439 456.211 421.089 456.211ZM439.553 455.33V406.799H444.907V425.642H445.043C446.082 423.835 447.619 422.355 449.652 421.203C451.686 420.05 453.9 419.474 456.295 419.474C460.339 419.474 463.468 420.694 465.682 423.134C467.919 425.574 469.037 428.862 469.037 432.996V455.33H463.649V433.844C463.649 430.952 462.926 428.67 461.48 426.998C460.056 425.303 457.91 424.456 455.041 424.456C452.307 424.456 449.935 425.552 447.924 427.743C445.935 429.912 444.941 432.533 444.941 435.606V455.33H439.553ZM489.965 456.211C484.927 456.211 480.724 454.483 477.358 451.026C473.992 447.569 472.308 443.163 472.308 437.809C472.308 432.522 473.969 428.15 477.29 424.693C480.634 421.214 484.746 419.474 489.626 419.474C494.642 419.474 498.686 421.011 501.759 424.083C504.832 427.133 506.368 430.974 506.368 435.606V438.961H475.358V434.386H500.708C500.573 431.539 499.5 429.178 497.489 427.303C495.478 425.405 492.857 424.456 489.626 424.456C486.215 424.456 483.368 425.699 481.086 428.184C478.827 430.647 477.697 433.855 477.697 437.809C477.697 441.83 478.917 445.073 481.357 447.535C483.82 449.998 486.746 451.229 490.135 451.229C491.829 451.229 493.286 450.992 494.506 450.518C495.749 450.043 496.856 449.377 497.828 448.518C498.822 447.637 499.884 446.293 501.013 444.485L505.656 446.688C504.436 449.151 503.069 451.026 501.556 452.314C500.064 453.602 498.393 454.573 496.54 455.228C494.71 455.884 492.518 456.211 489.965 456.211ZM521.648 456.211C519.366 456.211 517.366 455.918 515.649 455.33C513.955 454.743 512.452 453.873 511.142 452.721C509.854 451.568 508.871 450.337 508.193 449.026C507.538 447.716 507.211 447.061 507.211 447.061L512.057 444.824C512.057 444.824 512.351 445.332 512.938 446.349C513.525 447.366 514.226 448.258 515.039 449.026C515.875 449.795 516.847 450.382 517.954 450.789C519.061 451.195 520.428 451.399 522.054 451.399C524.269 451.399 526.076 450.936 527.477 450.009C528.9 449.06 529.612 447.75 529.612 446.078C529.612 444.519 529.036 443.322 527.884 442.486C526.754 441.627 524.506 440.814 521.139 440.046C516.485 438.938 513.209 437.538 511.311 435.843C509.436 434.149 508.498 431.968 508.498 429.302C508.498 426.433 509.73 424.083 512.192 422.253C514.678 420.4 517.762 419.474 521.444 419.474C523.342 419.474 525.014 419.7 526.46 420.152C527.906 420.604 529.228 421.304 530.425 422.253C531.623 423.202 532.538 424.219 533.171 425.303C533.803 426.388 534.119 426.93 534.119 426.93L529.51 429.201C529.51 429.201 529.251 428.817 528.731 428.048C528.211 427.28 527.59 426.614 526.867 426.049C526.167 425.484 525.342 425.066 524.393 424.795C523.467 424.501 522.393 424.354 521.173 424.354C519.004 424.354 517.253 424.818 515.92 425.744C514.61 426.67 513.955 427.766 513.955 429.031C513.955 430.477 514.542 431.641 515.717 432.522C516.892 433.38 519.264 434.228 522.834 435.064C527.33 436.103 530.493 437.459 532.323 439.131C534.176 440.78 535.102 442.96 535.102 445.671C535.102 448.902 533.848 451.467 531.34 453.364C528.833 455.262 525.602 456.211 521.648 456.211ZM549.616 456.211C547.04 456.211 544.916 455.432 543.244 453.873C541.572 452.291 540.736 449.908 540.736 446.722V411.002H546.091V445.841C546.091 447.784 546.464 449.185 547.21 450.043C547.955 450.879 549.051 451.297 550.497 451.297C550.949 451.297 551.401 451.263 551.853 451.195C552.327 451.105 552.914 450.958 553.615 450.755C554.338 450.529 554.699 450.416 554.699 450.416V455.33C554.699 455.33 554.372 455.42 553.716 455.601C553.061 455.805 552.406 455.951 551.751 456.042C551.096 456.155 550.384 456.211 549.616 456.211ZM534.772 425.134V420.355H554.733V425.134H534.772ZM558.113 455.33V420.355H563.332V426.456L562.688 425.947H563.434C564.36 423.982 565.761 422.411 567.636 421.236C569.534 420.062 571.489 419.474 573.499 419.474C573.951 419.474 574.46 419.508 575.024 419.576C575.612 419.644 576.143 419.734 576.617 419.847C577.092 419.96 577.329 420.016 577.329 420.016V425.574C577.329 425.574 577.035 425.495 576.448 425.337C575.883 425.179 575.273 425.066 574.618 424.998C573.963 424.908 573.454 424.863 573.093 424.863C570.494 424.863 568.246 425.879 566.349 427.913C564.451 429.946 563.502 432.533 563.502 435.674V455.33H558.113ZM590.052 456.211C586.188 456.211 583.025 455.149 580.562 453.026C578.1 450.879 576.868 448.089 576.868 444.655C576.868 441.153 578.224 438.34 580.935 436.216C583.646 434.092 587.16 433.03 591.475 433.03C593.328 433.03 595.192 433.245 597.067 433.674C598.942 434.103 600.467 434.646 601.642 435.301V433.098C601.642 430.432 600.716 428.32 598.863 426.761C597.01 425.179 594.717 424.388 591.983 424.388C590.515 424.388 589.261 424.569 588.222 424.93C587.182 425.269 586.279 425.721 585.51 426.286C584.765 426.828 584.03 427.484 583.307 428.252C582.607 428.997 582.257 429.37 582.257 429.37L578.122 426.286C578.122 426.286 578.563 425.8 579.444 424.829C580.348 423.835 581.387 422.931 582.562 422.118C583.759 421.282 585.104 420.638 586.595 420.186C588.086 419.711 589.973 419.474 592.255 419.474C596.705 419.474 600.253 420.694 602.896 423.134C605.54 425.552 606.861 428.828 606.861 432.962V455.33H601.676V447.332L603.472 449.908H601.54C600.388 451.873 598.773 453.421 596.694 454.551C594.638 455.658 592.424 456.211 590.052 456.211ZM590.526 451.229C593.734 451.229 596.389 450.088 598.49 447.806C600.592 445.502 601.642 442.994 601.642 440.283V440.113C600.512 439.345 599.1 438.735 597.406 438.283C595.711 437.831 593.949 437.605 592.119 437.605C589.091 437.605 586.719 438.204 585.002 439.402C583.285 440.577 582.426 442.316 582.426 444.621C582.426 446.632 583.172 448.236 584.663 449.433C586.154 450.631 588.109 451.229 590.526 451.229ZM622.435 456.211C619.859 456.211 617.735 455.432 616.063 453.873C614.392 452.291 613.556 449.908 613.556 446.722V411.002H618.91V445.841C618.91 447.784 619.283 449.185 620.029 450.043C620.774 450.879 621.87 451.297 623.316 451.297C623.768 451.297 624.22 451.263 624.672 451.195C625.146 451.105 625.734 450.958 626.434 450.755C627.157 450.529 627.518 450.416 627.518 450.416V455.33C627.518 455.33 627.191 455.42 626.536 455.601C625.88 455.805 625.225 455.951 624.57 456.042C623.915 456.155 623.203 456.211 622.435 456.211ZM607.591 425.134V420.355H627.552V425.134H607.591ZM631.746 455.33V420.355H637.134V455.33H631.746ZM634.457 414.391C633.44 414.391 632.559 414.029 631.814 413.306C631.091 412.561 630.729 411.668 630.729 410.629C630.729 409.589 631.091 408.72 631.814 408.019C632.559 407.319 633.44 406.969 634.457 406.969C635.519 406.969 636.4 407.319 637.1 408.019C637.823 408.72 638.185 409.589 638.185 410.629C638.185 411.668 637.823 412.561 637.1 413.306C636.4 414.029 635.519 414.391 634.457 414.391ZM659.608 456.211C654.479 456.211 650.198 454.438 646.763 450.89C643.352 447.343 641.646 442.983 641.646 437.809C641.646 432.612 643.352 428.263 646.763 424.761C650.198 421.236 654.479 419.474 659.608 419.474C664.714 419.474 668.995 421.248 672.452 424.795C675.909 428.32 677.637 432.657 677.637 437.809C677.637 442.983 675.92 447.343 672.486 450.89C669.052 454.438 664.759 456.211 659.608 456.211ZM659.608 451.195C663.11 451.195 666.081 449.93 668.521 447.4C670.961 444.869 672.181 441.672 672.181 437.809C672.181 433.923 670.95 430.737 668.487 428.252C666.047 425.766 663.087 424.524 659.608 424.524C656.128 424.524 653.169 425.766 650.728 428.252C648.288 430.737 647.068 433.923 647.068 437.809C647.068 441.672 648.277 444.869 650.695 447.4C653.135 449.93 656.106 451.195 659.608 451.195ZM681.31 455.33V420.355H686.529V426.422L685.682 425.642H686.631C687.692 423.88 689.263 422.411 691.341 421.236C693.442 420.062 695.679 419.474 698.052 419.474C702.096 419.474 705.225 420.694 707.439 423.134C709.676 425.552 710.794 428.839 710.794 432.996V455.33H705.406V433.844C705.406 430.884 704.694 428.579 703.271 426.93C701.847 425.281 699.656 424.456 696.696 424.456C693.917 424.456 691.556 425.518 689.613 427.642C687.67 429.766 686.698 432.375 686.698 435.47V455.33H681.31Z" fill="white" fill-opacity="0.6"/>
</g>
<defs>
<clipPath id="clip0_213_137">
<rect width="1500" height="500" fill="white"/>
</clipPath>
</defs>
</svg>
